<svg xmlns="http://www.w3.org/2000/svg" viewBox="0 0 48 16">
  <path fill="#1A1F71" d="M44.1 0H3.9C1.7 0 0 1.7 0 3.9v8.2C0 14.3 1.7 16 3.9 16h40.2c2.2 0 3.9-1.7 3.9-3.9V3.9C48 1.7 46.3 0 44.1 0z"/>
  <path fill="#F7B600" d="M15.5 4.5l-1.8 7.1h-2.1l1.8-7.1h2.1zm-2.9 0l-2.1 5.4-0.2-1.1c-0.4-1.3-1.3-2.7-2.4-3.4l1.5 5.5h-2.1l-2.6-7.1h2c0.8 0 1.5 0.5 1.8 1.2l1.3 3.6 1.3-3.6c0.3-0.7 1-1.2 1.8-1.2h2l-0.1 0.1z"/>
  <path fill="#F7B600" d="M25.5 4.5c-1.3 0-2.4 0.7-3 1.8l-0.1-1.5h-1.9v7.1h2.1V8.3c0-1.1 0.8-2 1.8-2 1 0 1.8 0.9 1.8 2v3.3h2.1V8.3c0-1.1-0.8-2-1.8-2z"/>
  <path fill="#F7B600" d="M32.5 4.5c-1.3 0-2.4 0.7-3 1.8l-0.1-1.5h-1.9v7.1h2.1V8.3c0-1.1 0.8-2 1.8-2 1 0 1.8 0.9 1.8 2v3.3h2.1V8.3c0-1.1-0.8-2-1.8-2z"/>
  <path fill="#F7B600" d="M39.5 4.5c-1.3 0-2.4 0.7-3 1.8l-0.1-1.5h-1.9v7.1h2.1V8.3c0-1.1 0.8-2 1.8-2 1 0 1.8 0.9 1.8 2v3.3h2.1V8.3c0-1.1-0.8-2-1.8-2z"/>
</svg>
